<svg width="40.000000" height="40.000000" viewBox="0 0 40 40" fill="none" xmlns="http://www.w3.org/2000/svg" xmlns:xlink="http://www.w3.org/1999/xlink">
	<desc>
			Created with Pixso.
	</desc>
	<defs>
		<clipPath id="clip205_423">
			<rect rx="-0.500000" width="39.000000" height="39.000000" transform="translate(0.500000 0.500000)" fill="white" fill-opacity="0"/>
		</clipPath>
	</defs>
	<rect rx="-0.500000" width="39.000000" height="39.000000" transform="translate(0.500000 0.500000)" fill="#FFFFFF" fill-opacity="0"/>
	<g clip-path="url(#clip205_423)">
		<path d="M16.87 8.12C16.87 7.29 17.2 6.5 17.79 5.91C18.37 5.32 19.17 5 20 5C20.82 5 21.62 5.32 22.2 5.91C22.79 6.5 23.12 7.29 23.12 8.12C23.12 8.95 22.79 9.74 22.2 10.33C21.62 10.92 20.82 11.25 20 11.25C19.17 11.25 18.37 10.92 17.79 10.33C17.2 9.74 16.87 8.95 16.87 8.12ZM20 2.5C19.15 2.5 18.31 2.69 17.55 3.06C16.78 3.43 16.11 3.96 15.59 4.63C15.06 5.29 14.69 6.07 14.5 6.9C14.32 7.73 14.33 8.58 14.52 9.41L10.49 7.78C9.51 7.39 8.42 7.4 7.45 7.81C6.47 8.22 5.7 8.99 5.3 9.97C5.1 10.45 5 10.96 5 11.49C5 12.01 5.11 12.52 5.31 13.01C5.51 13.49 5.81 13.92 6.18 14.29C6.55 14.66 6.99 14.95 7.47 15.14L12.5 17.17L12.5 23.13L7.96 31.65C7.72 32.11 7.56 32.62 7.51 33.14C7.46 33.66 7.52 34.18 7.67 34.68C7.82 35.18 8.07 35.65 8.4 36.05C8.74 36.45 9.15 36.79 9.61 37.03C10.54 37.53 11.63 37.63 12.64 37.33C13.65 37.02 14.49 36.32 14.99 35.39L20 25.97L25.01 35.39C25.5 36.32 26.35 37.02 27.35 37.33C28.36 37.64 29.45 37.53 30.39 37.04C31.32 36.54 32.01 35.69 32.32 34.69C32.63 33.68 32.53 32.59 32.03 31.66L27.5 23.13L27.5 17.17L32.52 15.14C33 14.95 33.44 14.66 33.81 14.29C34.18 13.92 34.48 13.49 34.68 13.01C34.88 12.52 34.99 12.01 34.99 11.49C34.99 10.96 34.89 10.45 34.69 9.97C34.29 8.99 33.52 8.21 32.54 7.81C31.57 7.4 30.48 7.39 29.5 7.78L25.47 9.41C25.67 8.58 25.67 7.72 25.49 6.9C25.3 6.07 24.93 5.29 24.41 4.63C23.88 3.96 23.21 3.42 22.45 3.06C21.68 2.69 20.84 2.49 20 2.5ZM7.61 10.92C7.76 10.55 8.05 10.26 8.42 10.11C8.78 9.96 9.19 9.95 9.55 10.1L18.12 13.56C19.32 14.05 20.67 14.05 21.87 13.56L30.44 10.1C30.8 9.95 31.21 9.96 31.58 10.11C31.94 10.26 32.23 10.55 32.38 10.92C32.45 11.09 32.49 11.29 32.49 11.48C32.49 11.67 32.45 11.86 32.38 12.04C32.3 12.21 32.19 12.38 32.06 12.51C31.92 12.65 31.76 12.75 31.58 12.82L26.56 14.85C26.1 15.03 25.7 15.36 25.42 15.77C25.14 16.18 24.99 16.67 25 17.17L25 23.13C24.99 23.54 25.1 23.94 25.29 24.3L29.82 32.83C29.99 33.17 30.01 33.57 29.89 33.93C29.77 34.29 29.52 34.59 29.18 34.77C28.85 34.95 28.45 34.99 28.09 34.89C27.72 34.79 27.41 34.55 27.21 34.22L22.2 24.8C21.99 24.39 21.67 24.06 21.28 23.83C20.89 23.59 20.45 23.47 20 23.47C19.54 23.47 19.1 23.59 18.71 23.83C18.32 24.06 18 24.39 17.79 24.8L12.78 34.21C12.69 34.38 12.56 34.54 12.42 34.66C12.27 34.78 12.09 34.88 11.91 34.93C11.72 34.99 11.53 35.01 11.33 34.99C11.14 34.97 10.95 34.91 10.78 34.82C10.61 34.73 10.46 34.61 10.33 34.46C10.21 34.31 10.12 34.14 10.06 33.95C10 33.77 9.99 33.57 10 33.38C10.02 33.18 10.08 33 10.17 32.83L14.7 24.3C14.89 23.94 14.99 23.54 15 23.13L15 17.17C15 16.67 14.85 16.18 14.57 15.77C14.29 15.36 13.89 15.04 13.43 14.85L8.41 12.82C8.23 12.75 8.07 12.64 7.93 12.51C7.8 12.37 7.69 12.21 7.61 12.04C7.54 11.86 7.5 11.67 7.5 11.48C7.5 11.28 7.54 11.09 7.61 10.92Z" fill="#A729F5" fill-opacity="1.000000" fill-rule="nonzero"/>
	</g>
</svg>
