<svg width="40.000000" height="40.000000" viewBox="0 0 40 40" fill="none" xmlns="http://www.w3.org/2000/svg" xmlns:xlink="http://www.w3.org/1999/xlink">
	<desc>
			Created with Pixso.
	</desc>
	<defs>
		<clipPath id="clip205_429">
			<rect rx="-0.500000" width="39.000000" height="39.000000" transform="translate(0.500000 0.500000)" fill="white" fill-opacity="0"/>
		</clipPath>
	</defs>
	<rect rx="-0.500000" width="39.000000" height="39.000000" transform="translate(0.500000 0.500000)" fill="#FFFFFF" fill-opacity="0"/>
	<g clip-path="url(#clip205_429)">
		<path d="M10 2.5C9.66 2.5 9.35 2.63 9.11 2.87C8.88 3.1 8.75 3.42 8.75 3.75L8.75 21.25C8.75 22.57 9.27 23.84 10.21 24.78C11.15 25.72 12.42 26.25 13.75 26.25L15 26.25L15 32.5C15 33.15 15.12 33.8 15.38 34.41C15.63 35.01 15.99 35.56 16.46 36.03C16.92 36.49 17.47 36.86 18.08 37.11C18.69 37.36 19.34 37.49 19.99 37.49C20.65 37.49 21.3 37.36 21.9 37.11C22.51 36.86 23.06 36.49 23.53 36.03C23.99 35.56 24.36 35.01 24.61 34.41C24.86 33.8 24.99 33.15 24.99 32.5L24.99 26.25L26.25 26.25C27.57 26.25 28.84 25.72 29.78 24.78C30.72 23.84 31.25 22.57 31.25 21.25L31.25 3.75C31.25 3.42 31.11 3.1 30.88 2.87C30.64 2.63 30.33 2.5 30 2.5L10 2.5ZM28.75 17.5L11.25 17.5L11.25 5L18.75 5L18.75 8.76C18.75 9.09 18.88 9.4 19.11 9.64C19.35 9.87 19.66 10.01 20 10.01C20.33 10.01 20.64 9.87 20.88 9.64C21.11 9.4 21.25 9.09 21.25 8.76L21.25 5L23.75 5L23.75 11.24C23.75 11.57 23.88 11.89 24.11 12.12C24.35 12.36 24.66 12.49 25 12.49C25.33 12.49 25.64 12.36 25.88 12.12C26.11 11.89 26.25 11.57 26.25 11.24L26.25 5L28.75 5L28.75 17.5ZM11.25 21.25L11.25 20L28.75 20L28.75 21.25C28.75 21.91 28.48 22.54 28.01 23.01C27.54 23.48 26.91 23.75 26.25 23.75L23.74 23.75C23.41 23.75 23.09 23.88 22.86 24.11C22.62 24.35 22.49 24.66 22.49 25L22.49 32.5C22.49 33.16 22.23 33.79 21.76 34.26C21.29 34.73 20.65 34.99 19.99 34.99C19.33 34.99 18.69 34.73 18.23 34.26C17.76 33.79 17.5 33.16 17.5 32.5L17.5 25C17.5 24.66 17.36 24.35 17.13 24.11C16.89 23.88 16.58 23.75 16.25 23.75L13.75 23.75C13.08 23.75 12.45 23.48 11.98 23.01C11.51 22.54 11.25 21.91 11.25 21.25Z" fill="#2FD887" fill-opacity="1.000000" fill-rule="nonzero"/>
	</g>
</svg>
