<svg width="40.000000" height="40.000000" viewBox="0 0 40 40" fill="none" xmlns="http://www.w3.org/2000/svg" xmlns:xlink="http://www.w3.org/1999/xlink">
	<desc>
			Created with Pixso.
	</desc>
	<defs>
		<clipPath id="clip205_435">
			<rect rx="-0.500000" width="39.000000" height="39.000000" transform="translate(0.500000 0.500000)" fill="white" fill-opacity="0"/>
		</clipPath>
	</defs>
	<rect rx="-0.500000" width="39.000000" height="39.000000" transform="translate(0.500000 0.500000)" fill="#FFFFFF" fill-opacity="0"/>
	<g clip-path="url(#clip205_435)">
		<path d="M24.5 7.6C24.65 7.67 24.79 7.76 24.9 7.88C25.01 8 25.1 8.14 25.16 8.3C25.22 8.45 25.25 8.61 25.24 8.78C25.24 8.94 25.2 9.1 25.14 9.25L15.14 31.75C15 32.06 14.75 32.29 14.44 32.41C14.13 32.53 13.79 32.52 13.49 32.39C13.18 32.25 12.95 32 12.83 31.69C12.71 31.38 12.72 31.04 12.85 30.74L22.85 8.24C22.92 8.09 23.01 7.95 23.13 7.84C23.25 7.73 23.39 7.64 23.55 7.58C23.7 7.52 23.86 7.49 24.03 7.5C24.19 7.5 24.35 7.54 24.5 7.6ZM10.83 13.44C10.95 13.54 11.05 13.68 11.12 13.82C11.19 13.97 11.23 14.13 11.24 14.3C11.25 14.46 11.23 14.62 11.18 14.78C11.12 14.93 11.04 15.08 10.93 15.2L6.67 20L10.93 24.79C11.04 24.91 11.13 25.06 11.18 25.21C11.23 25.37 11.26 25.53 11.25 25.69C11.24 25.86 11.19 26.02 11.12 26.17C11.05 26.31 10.95 26.45 10.83 26.56C10.7 26.66 10.56 26.75 10.41 26.8C10.25 26.86 10.09 26.88 9.92 26.87C9.76 26.86 9.6 26.82 9.45 26.74C9.3 26.67 9.17 26.57 9.06 26.45L4.06 20.83C3.86 20.6 3.75 20.3 3.75 20C3.75 19.69 3.86 19.39 4.06 19.17L9.06 13.54C9.17 13.42 9.3 13.32 9.45 13.25C9.6 13.17 9.76 13.13 9.92 13.12C10.09 13.11 10.25 13.13 10.41 13.19C10.56 13.24 10.7 13.33 10.83 13.44ZM29.17 13.44C29.29 13.33 29.43 13.24 29.59 13.19C29.74 13.13 29.91 13.11 30.07 13.12C30.23 13.13 30.39 13.17 30.54 13.25C30.69 13.32 30.82 13.42 30.93 13.54L35.93 19.17C36.13 19.39 36.25 19.69 36.25 20C36.25 20.3 36.13 20.6 35.93 20.83L30.93 26.45C30.82 26.57 30.69 26.67 30.54 26.74C30.39 26.82 30.23 26.86 30.07 26.87C29.91 26.88 29.74 26.86 29.59 26.8C29.43 26.75 29.29 26.66 29.17 26.56C29.04 26.45 28.94 26.31 28.87 26.17C28.8 26.02 28.76 25.86 28.75 25.69C28.74 25.53 28.76 25.37 28.81 25.21C28.87 25.06 28.95 24.91 29.06 24.79L33.32 20L29.06 15.2C28.95 15.08 28.87 14.93 28.81 14.78C28.76 14.62 28.74 14.46 28.75 14.3C28.76 14.13 28.8 13.97 28.87 13.82C28.94 13.68 29.04 13.54 29.17 13.44Z" fill="#FF7E35" fill-opacity="1.000000" fill-rule="nonzero"/>
	</g>
</svg>
