<svg width="40.000000" height="40.000000" viewBox="0 0 40 40" fill="none" xmlns="http://www.w3.org/2000/svg" xmlns:xlink="http://www.w3.org/1999/xlink">
	<desc>
			Created with Pixso.
	</desc>
	<defs>
		<clipPath id="clip205_417">
			<rect rx="-0.500000" width="39.000000" height="39.000000" transform="translate(0.500000 0.500000)" fill="white" fill-opacity="0"/>
		</clipPath>
	</defs>
	<rect rx="-0.500000" width="39.000000" height="39.000000" transform="translate(0.500000 0.500000)" fill="#FFFFFF" fill-opacity="0"/>
	<g clip-path="url(#clip205_417)">
		<path d="M21.25 18.75C21.25 17.75 21.64 16.8 22.34 16.09C23.05 15.39 24 15 25 15L28.75 15C29.08 15 29.39 15.13 29.63 15.36C29.86 15.6 30 15.91 30 16.25C30 16.58 29.86 16.89 29.63 17.13C29.39 17.36 29.08 17.5 28.75 17.5L25 17.5C24.66 17.5 24.35 17.63 24.11 17.86C23.88 18.1 23.75 18.41 23.75 18.75L23.75 20C23.75 20.33 23.88 20.64 24.11 20.88C24.35 21.11 24.66 21.25 25 21.25L26.25 21.25C27.24 21.25 28.19 21.64 28.9 22.34C29.6 23.05 30 24 30 25L30 26.25C30 27.24 29.6 28.19 28.9 28.9C28.19 29.6 27.24 30 26.25 30L22.5 30C22.16 30 21.85 29.86 21.61 29.63C21.38 29.39 21.25 29.08 21.25 28.75C21.25 28.41 21.38 28.1 21.61 27.86C21.85 27.63 22.16 27.5 22.5 27.5L26.25 27.5C26.58 27.5 26.89 27.36 27.13 27.13C27.36 26.89 27.5 26.58 27.5 26.25L27.5 25C27.5 24.66 27.36 24.35 27.13 24.11C26.89 23.88 26.58 23.75 26.25 23.75L25 23.75C24 23.75 23.05 23.35 22.34 22.65C21.64 21.94 21.25 20.99 21.25 20L21.25 18.75ZM20 16.25C20 15.91 19.86 15.6 19.63 15.36C19.39 15.13 19.08 15 18.75 15C18.41 15 18.1 15.13 17.86 15.36C17.63 15.6 17.5 15.91 17.5 16.25L17.5 26.25C17.5 26.58 17.36 26.89 17.13 27.13C16.89 27.36 16.58 27.5 16.25 27.5L13.75 27.5C13.41 27.5 13.1 27.63 12.86 27.86C12.63 28.1 12.5 28.41 12.5 28.75C12.5 29.08 12.63 29.39 12.86 29.63C13.1 29.86 13.41 30 13.75 30L16.25 30C17.24 30 18.19 29.6 18.9 28.9C19.6 28.19 20 27.24 20 26.25L20 16.25ZM5 11.25C5 9.59 5.65 8 6.83 6.83C8 5.65 9.59 5 11.25 5L28.75 5C30.4 5 31.99 5.65 33.16 6.83C34.34 8 35 9.59 35 11.25L35 28.75C35 30.4 34.34 31.99 33.16 33.16C31.99 34.34 30.4 35 28.75 35L11.25 35C9.59 35 8 34.34 6.83 33.16C5.65 31.99 5 30.4 5 28.75L5 11.25ZM11.25 7.5C10.25 7.5 9.3 7.89 8.59 8.59C7.89 9.3 7.5 10.25 7.5 11.25L7.5 28.75C7.5 29.74 7.89 30.69 8.59 31.4C9.3 32.1 10.25 32.5 11.25 32.5L28.75 32.5C29.74 32.5 30.69 32.1 31.4 31.4C32.1 30.69 32.5 29.74 32.5 28.75L32.5 11.25C32.5 10.25 32.1 9.3 31.4 8.59C30.69 7.89 29.74 7.5 28.75 7.5L11.25 7.5Z" fill="#306AFF" fill-opacity="1.000000" fill-rule="nonzero"/>
	</g>
</svg>
